<?xml version="1.0" encoding="iso-8859-1"?>
<!-- Uploaded to: SVG Repo, www.svgrepo.com, Generator: SVG Repo Mixer Tools -->
<svg fill="#000000" height="800px" width="800px" version="1.1" id="Layer_1" xmlns="http://www.w3.org/2000/svg" xmlns:xlink="http://www.w3.org/1999/xlink" 
	 viewBox="0 0 291.704 291.704" xml:space="preserve">
<g>
	<g>
		<g>
			<path d="M126.788,189.128v21.524c0,2.136,1.696,3.876,3.78,3.876s3.78-1.74,3.78-3.876v-21.524c0-2.136-1.696-3.876-3.78-3.876
				S126.788,186.992,126.788,189.128z M131.512,189.128v21.524c0,0.576-0.42,1.04-0.944,1.04s-0.944-0.468-0.944-1.04v-21.524
				c0-0.576,0.42-1.04,0.944-1.04S131.512,188.556,131.512,189.128z"/>
			<path d="M160.404,185.252c-2.084,0-3.78,1.74-3.78,3.876v21.524c0,2.136,1.696,3.876,3.78,3.876s3.78-1.74,3.78-3.876v-21.524
				C164.184,186.992,162.488,185.252,160.404,185.252z M161.348,210.652c0,0.576-0.42,1.04-0.944,1.04s-0.944-0.468-0.944-1.04
				v-21.524c0-0.576,0.42-1.04,0.944-1.04s0.944,0.468,0.944,1.04V210.652z"/>
			<path d="M244.16,227.256V156.94c7.584-0.744,13.548-7.112,13.812-15.012h0.052l-0.036-0.172c0.004-0.124,0.036-0.236,0.036-0.36
				l-0.492-1.832c-8.044-38.772-36.724-69.456-73.488-82.336c-4.76-17.284-20.572-30.036-39.352-30.036
				c-18.984,0-34.936,13.032-39.5,30.612c-35.92,13.236-63.804,43.604-71.728,81.76l-0.088,0.416l-0.432,1.416
				c0,0.152,0.04,0.292,0.044,0.44l-0.02,0.088h0.028c0.264,7.896,6.228,14.268,13.808,15.012v71.996
				c-3.524,1.036-6.124,4.268-6.124,8.124v23.436c0,2.216,1.804,4.02,4.02,4.02h12.468c2.476,0,4.488-2.012,4.488-4.488v-22.892
				c0-3.872-2.596-7.116-6.124-8.18v-73.84c2.896-1.62,5.232-4.128,6.612-7.216c1.912,4.272,5.632,7.488,10.156,8.664v106.496
				h11.764h122.828h11.768V156.564c4.524-1.176,8.244-4.388,10.156-8.66c1.38,3.088,3.72,5.596,6.612,7.216v72.136
				c-3.484,0.672-6.128,3.736-6.128,7.416v25.364c0,1.676,1.364,3.04,3.04,3.04h14.86c1.7,0,3.084-1.38,3.084-3.08v-25.328
				C250.292,230.992,247.648,227.928,244.16,227.256z M253.132,137.996h-16.624c-6.32-33.988-25.864-61.492-51.42-75.708
				c-0.028-0.184-0.056-0.372-0.084-0.556C218.652,74.336,244.9,102.508,253.132,137.996z M184.576,76.8
				c11.176,15.032,19.436,36.3,22.692,61.2h-36.576v-0.004c-0.664-13.144-1.86-25.184-3.46-35.908
				C175.92,96.316,182.268,87.308,184.576,76.8z M199.552,142.816c-0.688,6.424-5.984,11.44-12.396,11.44
				c-6.416,0-11.712-5.016-12.4-11.44H199.552z M169.016,138h-47.032c0.628-12.288,1.764-23.708,3.26-34.028
				c5.788,3.144,12.412,4.932,19.448,4.932c7.656,0,14.804-2.156,20.936-5.836C167.192,113.616,168.372,125.352,169.016,138z
				 M180.54,59.52c-0.728,2.732-3.196,4.756-6.156,4.756c-3.524,0-6.392-2.868-6.392-6.392c0-3.524,2.868-6.396,6.392-6.396
				c1.456,0,2.784,0.508,3.864,1.332C179.22,54.956,179.988,57.196,180.54,59.52z M163.664,87.212h-0.028
				c-13.356-0.072-25.752-0.068-37.884,0c-1.392-0.028-1.884-0.324-2.344-1.592c-1.736-4.832-3.552-9.64-5.368-14.444l-2.028-5.376
				c-0.004-0.012-0.012-0.028-0.016-0.044c1.856-0.232,3.512-1.076,4.748-2.356c1.184,1.26,2.356,2.532,3.524,3.8l2.444,2.648
				c0.196,0.212,0.42,0.4,0.692,0.624l0.424,0.356c0.204,0.18,0.492,0.236,0.74,0.168c0.256-0.076,0.46-0.276,0.54-0.532l0.176-0.56
				c0.124-0.396,0.224-0.716,0.3-1.04l1.016-4.188c0.756-3.148,1.52-6.292,2.324-9.428c0.228,0.024,0.448,0.076,0.688,0.076
				c1.532,0,2.948-0.436,4.188-1.148c1.22,3.104,2.424,6.216,3.632,9.328l1.836,4.744c0.088,0.228,0.204,0.444,0.34,0.696
				l0.176,0.332c0.124,0.248,0.368,0.408,0.644,0.428c0.28,0.036,0.54-0.1,0.704-0.32l0.16-0.204
				c0.12-0.152,0.248-0.312,0.336-0.532l1.824-4.692c1.296-3.348,2.592-6.692,3.908-10.032c0.996,0.424,2.092,0.66,3.24,0.66
				c0.496,0,0.98-0.064,1.452-0.148c0.016,0.156-0.024,0.324,0.012,0.468c0.66,2.664,1.308,5.332,1.956,8l1.572,6.424
				c0.076,0.312,0.212,0.576,0.356,0.852c0.068,0.128,0.14,0.264,0.216,0.428c0.108,0.24,0.336,0.408,0.596,0.448
				c0.248,0.044,0.52-0.052,0.704-0.244l6.332-6.832c0.088-0.096,0.188-0.188,0.284-0.284c0.144-0.136,0.288-0.3,0.432-0.464
				c1.18,1.292,2.764,2.192,4.564,2.492c-0.048,0.104-0.096,0.2-0.136,0.312c-1.128,3.076-2.28,6.144-3.432,9.212
				c-1.328,3.532-2.652,7.064-3.944,10.608C165.172,86.932,164.784,87.212,163.664,87.212z M164.616,88.804v7.724h-39.848v-7.724
				h0.94h0.048H164.616z M126.696,46.82c0-3.816,3.1-6.916,6.916-6.916c3.812,0,6.916,3.104,6.916,6.916s-3.104,6.916-6.916,6.916
				S126.696,50.636,126.696,46.82z M147.884,46.288c0-3.704,3.012-6.716,6.716-6.716c3.7,0,6.712,3.012,6.712,6.716
				c0,3.7-3.012,6.712-6.712,6.712C150.896,53,147.884,49.988,147.884,46.288z M144.692,31.164c13.948,0,26.108,7.784,32.376,19.236
				c-0.844-0.304-1.736-0.496-2.684-0.496c-4.4,0-7.976,3.58-7.976,7.98c0,1.444,0.416,2.78,1.088,3.948
				c-0.008,0.04,0.004,0.1-0.008,0.132c-0.068,0.168-0.288,0.38-0.504,0.584c-0.12,0.116-0.244,0.232-0.352,0.352l-5.52,5.96
				l-1.548-6.332c-0.648-2.668-1.296-5.34-1.96-8.008c-0.068-0.264-0.064-0.388-0.044-0.508c3.112-1.196,5.34-4.2,5.34-7.728
				c0-4.58-3.724-8.3-8.296-8.3c-4.58,0-8.3,3.724-8.3,8.3c0,2.852,1.448,5.372,3.648,6.868c-0.004,0.012,0,0.016-0.004,0.028
				c-1.34,3.396-2.656,6.796-3.972,10.2l-1.46,3.668l-1.596-4.12c-1.228-3.164-2.452-6.328-3.692-9.48
				c-0.04-0.1-0.036-0.168-0.048-0.244c1.788-1.56,2.944-3.824,2.944-6.38c0-4.688-3.812-8.5-8.504-8.5c-4.688,0-8.5,3.816-8.5,8.5
				c0,3.9,2.652,7.16,6.24,8.156c-0.796,3.104-1.548,6.216-2.3,9.332l-1.012,4.188c-0.032,0.116-0.064,0.232-0.096,0.352
				l-0.072-0.076l-2.44-2.64c-1.228-1.336-2.46-2.672-3.704-3.996c0.784-1.236,1.252-2.688,1.252-4.252c0-4.4-3.58-7.98-7.98-7.98
				c-0.948,0-1.84,0.196-2.684,0.496C118.584,38.948,130.744,31.164,144.692,31.164z M111.14,52.824
				c1.076-0.824,2.404-1.332,3.86-1.332c3.528,0,6.396,2.868,6.396,6.396S118.528,64.28,115,64.28c-2.96,0-5.428-2.028-6.156-4.756
				C109.4,57.196,110.168,54.956,111.14,52.824z M108.316,62.216c1.288,1.984,3.44,3.328,5.916,3.568
				c0.1,0.16,0.196,0.32,0.292,0.58l2.028,5.376c1.812,4.8,3.624,9.596,5.36,14.42c0.32,0.888,0.736,1.504,1.284,1.928
				c0,0.012-0.012,0.02-0.012,0.028v9.096c0,0.436,0.46,0.9,0.9,0.9h41.224c0.436,0,0.9-0.46,0.9-0.9v-9.096
				c0-0.072-0.072-0.132-0.096-0.204c0.38-0.376,0.7-0.848,0.944-1.512c1.288-3.536,2.612-7.064,3.936-10.588
				c1.156-3.072,2.308-6.144,3.44-9.224c0.116-0.324,0.28-0.56,0.48-0.776c2.58-0.172,4.828-1.544,6.164-3.592
				c0.304,1.904,0.508,3.844,0.508,5.832c0,20.336-16.548,36.884-36.884,36.884s-36.884-16.548-36.884-36.884
				C107.812,66.06,108.012,64.12,108.316,62.216z M105.22,78.384c2.72,10.396,9.432,19.172,18.416,24.608
				c-1.532,10.5-2.684,22.228-3.328,35.008H83.732C86.872,113.992,94.648,93.316,105.22,78.384z M116.216,142.816
				c-0.688,6.424-5.984,11.44-12.4,11.44c-6.416,0-11.712-5.016-12.4-11.44H116.216z M104.272,62.444
				c-0.04,0.276-0.092,0.544-0.124,0.824c-24.692,14.488-43.476,41.524-49.652,74.728H37.872
				C45.96,103.124,71.468,75.36,104.272,62.444z M57.66,237.14v22.892c0,0.268-0.22,0.488-0.488,0.488l-12.488-0.02v-23.436
				c0-2.484,2.02-4.504,4.504-4.504h3.892C55.608,232.556,57.66,234.612,57.66,237.14z M49.076,228.568v-71.56
				c1.464-0.08,2.868-0.376,4.196-0.852v72.42c-0.064,0-0.124-0.02-0.192-0.02h-3.892C49.148,228.556,49.112,228.568,49.076,228.568
				z M48.26,154.256c-6.416,0-11.712-5.016-12.4-11.44h24.796C59.972,149.24,54.672,154.256,48.26,154.256z M56.2,138
				c6.052-32.116,24.084-58.3,47.78-72.644c-0.06,0.896-0.136,1.788-0.136,2.696c-0.004,2.844,0.292,5.62,0.848,8.304
				C93.504,91.644,85.28,113.044,82.048,138H56.2z M84.072,259.092h-7.796V157.068c2.864-0.048,5.52-0.92,7.796-2.372V259.092z
				 M76.036,154.256c-6.408,0-11.708-5.016-12.392-11.44h24.792C87.748,149.24,82.452,154.256,76.036,154.256z M139.848,259.092
				h-51.8V151.02H88.04c0.736-0.964,1.384-1.992,1.888-3.116c2.42,5.404,7.72,9.188,13.892,9.188s11.472-3.784,13.892-9.188
				c2.42,5.404,7.716,9.188,13.888,9.188c3.04,0,5.86-0.94,8.248-2.512V259.092z M131.592,154.256
				c-6.412,0-11.708-5.016-12.396-11.44h24.796C143.304,149.24,138.008,154.256,131.592,154.256z M149.428,259.092h-7.884V153.228
				c1.656-1.468,3.016-3.26,3.94-5.324c0.924,2.064,2.288,3.86,3.944,5.328V259.092z M146.98,142.816h24.796
				c-0.688,6.424-5.984,11.44-12.4,11.44C152.96,154.256,147.664,149.24,146.98,142.816z M202.94,259.092h-51.804V154.58
				c2.384,1.572,5.204,2.512,8.244,2.512c6.172,0,11.472-3.784,13.892-9.188c2.42,5.404,7.72,9.188,13.892,9.188
				c6.168,0,11.468-3.784,13.888-9.188c0.504,1.124,1.152,2.152,1.888,3.116V259.092z M214.7,259.092h-7.8V154.696
				c2.28,1.452,4.936,2.324,7.8,2.372V259.092z M214.936,154.256c-6.416,0-11.712-5.016-12.4-11.44h24.796
				C226.648,149.24,221.348,154.256,214.936,154.256z M208.948,137.996c-3.36-25.94-12.1-48.06-23.972-63.436
				c0.344-2.128,0.568-4.292,0.568-6.512c0-1.264-0.076-2.512-0.188-3.744c24.528,14.108,43.256,40.816,49.448,73.692H208.948z
				 M230.316,142.816h24.796c-0.688,6.424-5.984,11.44-12.4,11.44C236.296,154.256,231.004,149.24,230.316,142.816z
				 M241.896,157.008v70.104h-4.192v-70.956C239.032,156.632,240.432,156.924,241.896,157.008z M246.296,259.076h-0.004h-12.98
				v-24.408c0-1.964,1.596-3.56,3.56-3.56h5.864c1.96,0,3.56,1.596,3.56,3.56V259.076z"/>
			<path d="M19.332,182.168C12.332,182.168,0,201.1,0,214.92c0,11.724,5.8,18.872,15.972,20.152v7.328H6.68l4.128,21.54h17.048
				l4.128-21.54h-9.048v-7.348c10.024-1.364,15.728-8.5,15.728-20.132C38.664,201.1,26.332,182.168,19.332,182.168z M25.512,261.1
				h-12.36l-1.864-9.72h16.088L25.512,261.1z M27.596,250.248h-16.52l-0.328-1.704h17.176L27.596,250.248z M28.56,245.232
				l-0.42,2.18H10.532l-0.416-2.18H28.56z M18.812,242.396v-7.104c0.184,0.004,0.34,0.04,0.524,0.04c0.272,0,0.504-0.052,0.768-0.06
				v7.124H18.812z M19.332,232.5c-7.528,0-16.496-3.048-16.496-17.584c0-13.292,11.96-29.916,16.496-29.916
				c4.536,0,16.496,16.624,16.496,29.916C35.828,229.448,26.86,232.5,19.332,232.5z"/>
			<path d="M291.704,214.916c0-13.816-12.332-32.752-19.332-32.752s-19.332,18.932-19.332,32.752
				c0,11.724,5.796,18.872,15.968,20.152v7.328h-9.288l4.128,21.54h17.044l4.128-21.54h-9.048v-7.348
				C286.004,233.688,291.704,226.552,291.704,214.916z M278.548,261.1h-12.356l-1.864-9.72h16.084L278.548,261.1z M280.628,250.248
				h-16.516l-0.328-1.704h17.172L280.628,250.248z M281.592,245.232l-0.42,2.18h-17.604l-0.416-2.18H281.592z M271.848,242.396
				v-7.104c0.184,0.004,0.34,0.04,0.528,0.04c0.268,0,0.5-0.052,0.764-0.06v7.124H271.848z M272.372,232.5
				c-7.528,0-16.496-3.052-16.496-17.584c0-13.292,11.96-29.916,16.496-29.916s16.496,16.624,16.496,29.916
				C288.868,229.448,279.9,232.5,272.372,232.5z"/>
		</g>
	</g>
</g>
</svg>