<?xml version="1.0" encoding="iso-8859-1"?>
<!-- Uploaded to: SVG Repo, www.svgrepo.com, Generator: SVG Repo Mixer Tools -->
<svg fill="#000000" version="1.1" id="Layer_1" xmlns="http://www.w3.org/2000/svg" xmlns:xlink="http://www.w3.org/1999/xlink" 
	 viewBox="0 0 496 496" xml:space="preserve">
<g>
	<g>
		<g>
			<rect x="368" y="392" width="48" height="16"/>
			<rect x="368" y="328" width="48" height="16"/>
			<rect x="368" y="264" width="48" height="16"/>
			<path d="M496,16V0H0v16h16v104H0v16h496v-16h-16V16H496z M240,120h-96v-16h96V120z M240,88h-80V72h80V88z M240,56h-96v32h-16v32
				H32V16h208V56z M272,120h-16V56h16V120z M304,120h-16V56h16V120z M336,120h-16V56h16V120z M368,120h-16V56h16V120z M464,120h-80
				V40H256V16h208V120z"/>
			<path d="M244.528,195.744C241.416,170.808,220.112,152,194.976,152h-53.952c-25.136,0-46.44,18.808-49.552,43.744
				c-0.176,1.408-0.232,2.848-0.4,4.256H0v48h16v248h16V248h56.112c-0.016,1.16-0.112,2.32-0.112,3.48
				c0,23.8-1.984,47.768-5.896,71.24l-1.072,6.432C71.208,332.16,64,341.208,64,352c0,13.232,10.768,24,24,24h72v72H88
				c-13.232,0-24,10.768-24,24s10.768,24,24,24s24-10.768,24-24c0-2.816-0.576-5.488-1.472-8H225.48c-0.904,2.512-1.48,5.184-1.48,8
				c0,13.232,10.768,24,24,24s24-10.768,24-24s-10.768-24-24-24h-72v-72h72c13.232,0,24-10.768,24-24
				c0-10.792-7.208-19.84-17.032-22.848l-1.072-6.432c-3.912-23.48-5.896-47.448-5.896-71.24c0-1.152-0.096-2.32-0.112-3.48H304v232
				h16v16h16v-16h112v16h16v-16h16V248h16v-48H244.928C244.768,198.584,244.704,197.152,244.528,195.744z M88,480
				c-4.408,0-8-3.584-8-8c0-4.416,3.592-8,8-8s8,3.584,8,8C96,476.416,92.408,480,88,480z M248,464c4.408,0,8,3.584,8,8
				c0,4.416-3.592,8-8,8c-4.408,0-8-3.584-8-8C240,467.584,243.592,464,248,464z M97.88,325.344C101.944,301,104,276.152,104,251.48
				c0-17.912,1.128-35.992,3.344-53.752c2.12-16.944,16.6-29.728,33.68-29.728h53.952c17.08,0,31.56,12.784,33.68,29.728
				c2.216,17.76,3.344,35.84,3.344,53.752c0,24.672,2.056,49.52,6.112,73.864L238.56,328H97.44L97.88,325.344z M16,232v-16h73.576
				c-0.424,5.336-0.736,10.648-0.968,16H16z M248,344c4.408,0,8,3.584,8,8c0,4.416-3.592,8-8,8H88c-4.408,0-8-3.584-8-8
				c0-4.416,3.592-8,8-8H248z M464,464H320v-88h144V464z M464,360H320v-48h144V360z M464,296H320v-48h144V296z M480,216v16H247.392
				c-0.232-5.352-0.544-10.664-0.968-16H480z"/>
		</g>
	</g>
</g>
</svg>