<?xml version="1.0" standalone="no"?>
<!DOCTYPE svg PUBLIC "-//W3C//DTD SVG 20010904//EN"
 "http://www.w3.org/TR/2001/REC-SVG-20010904/DTD/svg10.dtd">
<svg version="1.0" xmlns="http://www.w3.org/2000/svg"
 width="512.000000pt" height="512.000000pt" viewBox="0 0 512.000000 512.000000"
 preserveAspectRatio="xMidYMid meet">

<g transform="translate(0.000000,512.000000) scale(0.100000,-0.100000)"
fill="#000000" stroke="none">
<path d="M265 5106 c-107 -34 -186 -102 -232 -201 l-28 -60 0 -1025 0 -1025
29 -59 c36 -73 96 -135 168 -173 l53 -28 489 -3 490 -3 -317 -317 c-369 -370
-372 -374 -372 -527 0 -163 -43 -111 763 -917 806 -806 754 -763 917 -763 160
0 138 -18 748 592 481 483 527 531 527 561 0 71 -56 122 -117 108 -19 -5 -195
-174 -543 -521 -354 -354 -527 -519 -552 -530 -50 -20 -83 -19 -132 5 -58 28
-1379 1351 -1401 1402 -19 47 -19 79 0 126 11 26 392 413 1313 1335 l1297
1297 669 0 c615 0 671 -1 688 -17 18 -16 14 -21 -98 -134 l-116 -116 -47 14
c-90 28 -207 1 -284 -66 -92 -82 -121 -237 -64 -353 53 -107 144 -163 267
-163 85 0 142 21 203 74 76 68 115 204 84 302 l-14 47 116 116 c113 112 118
116 134 98 16 -17 17 -73 17 -688 l0 -669 -490 -490 c-475 -475 -490 -492
-490 -529 0 -55 43 -96 102 -96 l43 0 507 507 c279 279 512 518 518 533 7 17
10 260 8 762 l-3 737 -44 45 -44 45 41 45 c60 65 67 121 22 166 -45 45 -101
38 -166 -22 l-45 -41 -45 44 c-44 43 -46 44 -122 47 l-77 4 -260 258 c-143
142 -270 263 -282 269 -34 17 -3774 14 -3828 -3z m3920 -356 l169 -169 -537
-3 -537 -3 -592 -592 -593 -593 -2 45 c-6 160 -133 286 -292 288 -115 2 -215
-58 -268 -162 -28 -54 -33 -73 -33 -135 0 -61 5 -83 31 -134 49 -100 145 -162
249 -162 l55 0 -200 -200 -200 -200 -572 2 -572 3 -32 30 c-62 59 -59 4 -59
1059 0 659 3 974 11 993 14 37 47 73 84 89 25 11 360 13 1875 14 l1845 0 170
-170z m261 -844 c37 -37 43 -70 20 -115 -15 -28 -53 -51 -86 -51 -99 0 -136
138 -49 186 42 23 78 17 115 -20z m-2580 -407 c18 -14 32 -67 26 -96 -14 -71
-114 -99 -165 -45 -52 54 -23 153 46 164 27 5 74 -7 93 -23z"/>
<path d="M855 4503 c-142 -51 -225 -195 -196 -340 56 -282 426 -328 563 -70
33 60 33 194 0 254 -74 141 -227 206 -367 156z m138 -194 c96 -49 60 -189 -48
-189 -14 0 -39 13 -57 29 -27 24 -33 36 -33 71 0 72 76 121 138 89z"/>
<path d="M1615 4471 c-42 -26 -695 -1183 -695 -1231 0 -47 47 -90 98 -90 23 0
49 7 61 18 12 9 170 280 351 602 340 602 348 618 319 672 -10 19 -65 48 -91
48 -7 0 -26 -8 -43 -19z"/>
<path d="M3298 3502 c-183 -183 -201 -133 182 -517 l310 -310 45 0 c45 0 47 1
170 126 115 116 125 128 125 163 0 48 -13 72 -52 92 -51 27 -85 13 -168 -71
l-74 -75 -68 67 c-38 37 -68 71 -68 76 0 4 34 44 75 87 54 57 75 86 75 105 0
59 -45 104 -103 105 -33 0 -46 -9 -118 -77 l-80 -77 -69 69 -70 69 74 76 c82
84 92 105 76 155 -15 45 -44 65 -94 65 -38 0 -47 -7 -168 -128z"/>
<path d="M2724 2921 c-30 -13 -64 -59 -64 -88 0 -13 6 -36 14 -51 25 -47 598
-610 629 -617 46 -12 79 11 216 149 113 115 131 137 131 165 0 70 -55 120
-117 107 -18 -4 -61 -39 -113 -91 -47 -47 -89 -85 -95 -85 -5 0 -125 115 -265
255 -263 263 -283 278 -336 256z"/>
<path d="M2228 2431 c-56 -50 -53 -61 170 -496 220 -430 225 -438 300 -419 65
17 96 101 58 159 -9 13 -16 30 -16 37 0 8 44 58 99 112 l98 98 41 -21 c58 -30
97 -27 133 8 40 41 41 102 2 138 -44 39 -789 413 -823 413 -19 0 -42 -11 -62
-29z m469 -468 c-28 -29 -54 -53 -57 -53 -5 0 -110 205 -110 215 0 3 49 -21
109 -53 l110 -57 -52 -52z"/>
<path d="M1674 1878 c-88 -90 -114 -123 -127 -162 -68 -201 71 -400 278 -401
82 0 121 14 194 69 71 54 119 56 162 8 31 -34 36 -69 18 -105 -6 -12 -51 -63
-100 -113 -80 -82 -89 -95 -89 -128 0 -55 44 -96 101 -96 40 0 47 5 141 97
125 123 153 175 153 283 0 90 -24 149 -82 207 -62 62 -124 88 -213 87 -85 0
-122 -14 -193 -68 -59 -45 -94 -53 -135 -32 -39 20 -52 44 -52 92 0 33 9 46
89 128 101 102 117 132 101 182 -14 41 -49 64 -97 64 -35 0 -46 -9 -149 -112z"/>
<path d="M3684 1581 c-12 -5 -31 -22 -44 -38 -47 -60 -1 -153 76 -153 46 0 70
14 89 50 22 43 18 76 -12 110 -30 32 -75 45 -109 31z"/>
</g>
</svg>
