<?xml version="1.0" standalone="no"?>
<!DOCTYPE svg PUBLIC "-//W3C//DTD SVG 20010904//EN"
 "http://www.w3.org/TR/2001/REC-SVG-20010904/DTD/svg10.dtd">
<svg version="1.0" xmlns="http://www.w3.org/2000/svg"
 width="512.000000pt" height="512.000000pt" viewBox="0 0 512.000000 512.000000"
 preserveAspectRatio="xMidYMid meet">

<g transform="translate(0.000000,512.000000) scale(0.100000,-0.100000)"
fill="#000000" stroke="none">
<path d="M745 5095 c-25 -24 -25 -26 -25 -215 0 -189 0 -191 25 -215 13 -14
31 -25 40 -25 14 0 15 -36 13 -321 l-3 -321 -305 -169 c-168 -93 -311 -176
-317 -186 -10 -12 -13 -78 -13 -245 l0 -229 25 -24 c13 -14 36 -25 50 -25 15
0 92 36 171 80 80 44 147 80 149 80 3 0 5 -486 5 -1080 l0 -1080 -176 0 c-214
0 -241 -7 -309 -75 -71 -70 -91 -145 -63 -239 16 -55 99 -138 154 -154 30 -9
177 -12 538 -12 l496 0 0 80 0 80 -495 0 -496 0 -24 25 c-33 32 -33 78 0 110
l24 25 496 0 495 0 0 80 0 80 -80 0 -80 0 0 960 0 960 480 0 480 0 0 -560 0
-560 80 0 80 0 0 615 0 616 -25 24 -24 25 -591 0 -591 0 -24 -25 -25 -24 0
-1016 0 -1015 -80 0 -80 0 0 1128 1 1127 920 507 920 507 919 -507 920 -507 0
-727 0 -728 80 0 80 0 0 680 c0 374 3 680 6 680 3 0 70 -36 149 -80 79 -44
155 -80 170 -80 14 0 37 11 50 25 l25 24 0 229 c0 204 -2 232 -17 250 -24 28
-2357 1312 -2383 1312 -15 0 -676 -356 -927 -501 l-33 -18 0 99 c0 84 3 100
15 100 9 0 27 11 40 25 25 24 25 26 25 215 0 189 0 191 -25 215 l-24 25 -431
0 -431 0 -24 -25z m775 -215 l0 -80 -320 0 -320 0 0 80 0 80 320 0 320 0 0
-80z m2164 -710 l1115 -615 1 -107 c0 -60 -2 -108 -4 -108 -2 0 -501 275
-1109 610 -608 336 -1115 610 -1126 610 -12 0 -519 -274 -1127 -610 -608 -335
-1107 -610 -1110 -610 -2 0 -4 48 -4 108 l1 107 1117 616 c614 340 1120 616
1124 615 3 0 508 -278 1122 -616z m-2244 326 l0 -143 -187 -103 c-104 -57
-212 -116 -240 -133 l-53 -29 0 276 0 276 240 0 240 0 0 -144z"/>
<path d="M2480 3187 c-49 -16 -133 -102 -148 -153 -8 -29 -12 -146 -12 -394 0
-248 4 -365 12 -394 16 -55 99 -138 154 -154 31 -9 233 -12 796 -12 859 0 816
-4 891 80 24 26 49 66 55 88 17 55 17 729 0 784 -6 22 -31 62 -55 88 -75 84
-31 80 -897 79 -524 -1 -772 -4 -796 -12z m560 -307 l0 -160 -280 0 -280 0 0
135 c0 131 1 137 25 160 l24 25 256 0 255 0 0 -160z m320 -240 l0 -400 -80 0
-80 0 0 400 0 400 80 0 80 0 0 -400z m695 375 c24 -23 25 -29 25 -160 l0 -135
-280 0 -280 0 0 160 0 160 255 0 256 0 24 -25z m-1015 -615 l0 -160 -255 0
-256 0 -24 25 c-24 23 -25 29 -25 160 l0 135 280 0 280 0 0 -160z m1040 25 c0
-131 -1 -137 -25 -160 l-24 -25 -256 0 -255 0 0 160 0 160 280 0 280 0 0 -135z"/>
<path d="M1877 1748 c-9 -7 -148 -200 -307 -428 -248 -354 -291 -419 -288
-445 5 -42 581 -863 611 -870 12 -3 675 -4 1473 -3 l1450 3 76 37 c91 45 147
103 191 196 l32 67 0 575 0 575 -32 67 c-44 93 -100 151 -191 196 l-76 37
-1461 3 c-1166 2 -1464 0 -1478 -10z m2917 -160 c55 -16 138 -99 154 -154 17
-59 17 -1049 0 -1108 -16 -55 -99 -138 -154 -154 -32 -9 -370 -12 -1437 -12
l-1395 0 -252 360 -252 360 252 360 252 360 1395 0 c1067 0 1405 -3 1437 -12z"/>
<path d="M2185 1255 l-25 -24 0 -376 0 -375 80 0 80 0 0 160 0 160 93 0 93 0
69 -172 c37 -95 69 -174 70 -175 3 -4 129 48 138 56 4 5 -19 76 -52 159 l-61
151 53 53 c104 104 104 231 2 333 -68 69 -94 75 -324 75 -190 0 -192 0 -216
-25z m430 -160 c16 -15 25 -36 25 -55 0 -19 -9 -40 -25 -55 -23 -24 -29 -25
-160 -25 l-135 0 0 80 0 80 135 0 c131 0 137 -1 160 -25z"/>
<path d="M2975 1266 c-41 -18 -83 -69 -90 -109 -3 -18 -5 -154 -3 -304 3 -256
4 -273 24 -299 50 -68 53 -69 305 -72 l229 -3 0 80 0 81 -200 0 -200 0 0 80 0
80 160 0 160 0 0 80 0 80 -160 0 -160 0 0 80 0 80 200 0 200 0 0 80 0 80 -217
0 c-159 -1 -226 -4 -248 -14z"/>
<path d="M3625 1255 l-25 -24 0 -376 0 -375 80 0 80 0 2 216 3 216 129 -207
c71 -113 138 -210 147 -216 31 -16 69 -10 94 16 l25 24 0 376 0 375 -80 0 -80
0 -2 -217 -3 -217 -124 199 c-68 110 -132 208 -143 218 -29 25 -74 22 -103 -8z"/>
<path d="M4320 1200 l0 -80 80 0 80 0 0 -320 0 -320 80 0 80 0 0 320 0 320 80
0 80 0 0 80 0 80 -240 0 -240 0 0 -80z"/>
</g>
</svg>
