<?xml version="1.0" standalone="no"?>
<!DOCTYPE svg PUBLIC "-//W3C//DTD SVG 20010904//EN"
 "http://www.w3.org/TR/2001/REC-SVG-20010904/DTD/svg10.dtd">
<svg version="1.0" xmlns="http://www.w3.org/2000/svg"
 width="512.000000pt" height="512.000000pt" viewBox="0 0 512.000000 512.000000"
 preserveAspectRatio="xMidYMid meet">

<g transform="translate(0.000000,512.000000) scale(0.100000,-0.100000)"
fill="#000000" stroke="none">
<path d="M3664 4499 c-155 -18 -298 -91 -421 -214 -67 -68 -89 -99 -126 -176
-51 -105 -77 -208 -77 -298 l0 -61 -1103 0 -1103 0 -51 -25 c-55 -28 -99 -77
-119 -134 -20 -54 -19 -2759 0 -2814 21 -57 58 -100 117 -132 l54 -30 1375 0
c1139 0 1382 2 1414 14 49 17 111 73 139 125 l22 41 3 1137 2 1138 23 4 c12 3
51 10 87 16 206 37 401 189 495 384 59 123 79 221 72 350 -22 419 -386 725
-803 675z m211 -144 c208 -43 386 -214 440 -421 8 -32 15 -100 15 -151 0 -513
-621 -765 -985 -399 -115 116 -170 251 -168 417 5 360 342 628 698 554z
m-2486 -757 c-23 -45 -196 -205 -282 -262 -91 -61 -204 -110 -276 -122 l-41
-7 0 170 c0 159 1 172 21 197 12 15 31 32 43 36 11 5 139 9 284 9 l263 1 -12
-22z m951 5 c-1 -33 -47 -132 -86 -184 -43 -56 -133 -128 -208 -166 -95 -48
-282 -101 -554 -158 -383 -79 -519 -122 -659 -210 l-43 -26 0 105 0 105 38 6
c68 11 175 46 237 77 162 82 359 254 450 392 l49 76 388 0 c363 0 388 -1 388
-17z m735 -35 c25 -80 80 -177 130 -235 25 -28 45 -56 45 -62 0 -19 -80 -172
-123 -236 -84 -124 -192 -217 -315 -272 -96 -43 -233 -71 -470 -99 -125 -14
-269 -34 -320 -45 -266 -54 -469 -167 -639 -356 -244 -272 -334 -338 -457
-338 -36 0 -77 7 -98 17 l-38 17 0 352 0 353 58 56 c108 104 243 153 667 240
138 29 302 68 365 87 208 63 360 148 455 255 53 61 120 189 137 266 l13 52
286 0 287 0 17 -52z m368 -422 c40 -19 102 -42 140 -52 62 -15 67 -19 67 -43
-1 -22 -17 -37 -107 -96 -128 -84 -270 -219 -303 -289 -36 -76 -38 -135 -6
-200 32 -66 84 -107 208 -164 63 -29 104 -57 147 -99 l61 -59 0 -86 0 -86
-126 78 c-288 181 -482 250 -703 250 -237 0 -450 -100 -524 -246 -37 -73 -46
-136 -57 -384 -6 -124 -15 -256 -21 -295 -5 -38 -10 -128 -10 -200 0 -143 17
-252 57 -351 13 -33 24 -64 24 -67 0 -4 -67 -7 -148 -7 l-149 0 -41 87 c-52
112 -71 179 -78 273 -8 101 8 179 58 280 35 70 43 97 46 155 3 65 1 74 -30
125 -64 106 -190 162 -363 162 -82 0 -114 -4 -178 -26 -136 -46 -188 -87 -304
-246 -27 -36 -68 -77 -94 -92 -54 -34 -131 -46 -183 -28 l-36 12 0 180 c0 168
1 180 18 172 38 -17 180 -16 234 1 124 40 241 131 374 291 225 270 424 372
824 419 435 51 510 67 670 147 91 45 117 65 201 148 100 99 155 176 216 298
20 39 38 72 40 72 3 0 37 -15 76 -34z m207 -546 l0 -261 -44 30 c-24 17 -79
47 -123 66 -96 44 -133 77 -133 120 0 63 86 160 234 264 33 22 61 41 63 41 1
0 3 -117 3 -260z m-612 -465 c112 -32 290 -121 467 -233 l140 -89 3 -146 c1
-81 0 -147 -4 -147 -23 0 -168 91 -334 210 -288 205 -389 259 -494 260 -60 0
-128 -30 -156 -70 -25 -35 -104 -247 -121 -325 -20 -93 -15 -284 10 -379 35
-132 99 -262 215 -438 l18 -28 -164 0 -165 0 -32 59 c-71 134 -94 320 -67 541
9 74 21 232 26 350 5 118 14 232 20 253 25 85 144 169 280 196 30 6 64 13 75
15 44 10 200 -6 283 -29z m-165 -293 c70 -25 160 -81 362 -227 207 -148 295
-201 363 -217 l52 -13 0 -280 c0 -307 0 -309 -60 -340 -24 -12 -83 -15 -334
-15 l-305 0 -66 95 c-188 269 -255 497 -211 715 31 152 99 300 137 300 5 0 33
-8 62 -18z m-1142 -167 c56 -19 105 -65 114 -106 5 -22 -4 -51 -38 -127 -62
-133 -71 -170 -70 -297 1 -123 21 -217 72 -328 l30 -67 -68 0 c-76 0 -73 -3
-113 110 -30 86 -39 135 -53 282 -13 152 -24 178 -80 205 -50 24 -91 8 -231
-92 -192 -136 -314 -185 -426 -171 -81 11 -78 6 -78 121 l0 102 51 -8 c99 -16
217 23 301 99 22 20 66 72 96 115 72 103 130 146 237 174 63 16 194 10 256
-12z m-261 -544 c0 -84 22 -204 55 -301 14 -41 25 -75 25 -77 0 -2 -158 -2
-351 -1 l-351 3 -29 33 c-26 29 -29 39 -29 100 l0 67 93 -3 c158 -6 279 40
467 177 52 38 101 70 108 70 8 1 12 -19 12 -68z"/>
<path d="M3837 4087 c-130 -62 -243 -120 -251 -127 -22 -24 -236 -484 -236
-508 0 -29 34 -62 64 -62 28 0 484 214 508 238 23 24 238 481 238 507 0 26
-39 65 -66 65 -10 0 -126 -51 -257 -113z m100 -119 c-3 -7 -22 -50 -43 -96
l-37 -83 -53 52 -52 52 86 43 c95 46 107 50 99 32z m-233 -227 l49 -49 -41
-21 c-22 -11 -65 -31 -96 -45 l-56 -25 20 38 c10 22 30 64 44 95 14 31 26 56
28 56 2 0 26 -22 52 -49z"/>
<path d="M1690 3453 c-38 -48 -8 -103 56 -103 59 0 84 67 41 108 -32 30 -71
28 -97 -5z"/>
<path d="M2740 3551 c-51 -16 -112 -53 -150 -91 -46 -46 -73 -97 -101 -185
-10 -34 -34 -85 -52 -111 -28 -43 -46 -55 -155 -110 -137 -68 -170 -94 -178
-145 -8 -47 21 -82 81 -99 89 -25 337 7 513 65 171 58 256 128 324 271 66 138
64 252 -5 331 -61 69 -185 102 -277 74z m153 -143 c51 -26 52 -125 1 -218 -43
-79 -81 -118 -148 -150 -68 -32 -220 -75 -301 -85 l-50 -6 38 24 c89 57 152
145 188 264 19 64 32 87 70 125 62 62 137 79 202 46z"/>
<path d="M1930 2932 c-50 -16 -66 -76 -30 -112 41 -41 110 -13 110 44 0 44
-42 80 -80 68z"/>
<path d="M1087 2440 c-34 -27 -36 -71 -5 -100 43 -40 108 -11 108 48 0 60 -56
88 -103 52z"/>
<path d="M2038 2303 c-36 -43 -26 -95 21 -111 47 -17 91 16 91 67 0 50 -80 81
-112 44z"/>
<path d="M1836 2029 c-17 -13 -26 -30 -26 -49 0 -31 39 -70 70 -70 32 0 63 34
63 70 0 22 -7 39 -22 52 -30 23 -52 23 -85 -3z"/>
<path d="M2920 1410 c-41 -41 -10 -110 48 -110 33 0 45 8 61 38 34 65 -56 125
-109 72z"/>
<path d="M3261 1064 c-24 -31 -25 -37 -10 -67 16 -29 28 -37 62 -37 34 0 67
32 67 65 0 61 -81 87 -119 39z"/>
<path d="M1003 4220 c-28 -11 -46 -46 -39 -74 3 -12 19 -35 35 -50 l30 -29
-34 -39 c-40 -43 -44 -75 -15 -106 30 -32 72 -28 115 9 l36 32 32 -32 c38 -36
78 -40 107 -11 29 29 25 64 -11 105 l-31 35 32 36 c39 45 38 87 -2 117 -23 17
-31 18 -56 8 -17 -7 -40 -24 -53 -37 l-23 -24 -30 29 c-36 34 -63 43 -93 31z"/>
<path d="M1830 4210 c-41 -41 -13 -110 44 -110 39 0 69 28 69 65 0 58 -72 86
-113 45z"/>
</g>
</svg>
